Coordinates
version=1
nRows=16
nColumns=38
inDegrees=no

Units are S.I. units (second, meters, Newtons, ...)
If the header above contains a line with 'inDegrees', this indicates whether rotational values are in degrees (yes) or radians (no).

endheader
time	pelvis_tilt	pelvis_list	pelvis_rotation	pelvis_tx	pelvis_ty	pelvis_tz	hip_flexion_r	hip_adduction_r	hip_rotation_r	knee_angle_r	ankle_angle_r	subtalar_angle_r	mtp_angle_r	hip_flexion_l	hip_adduction_l	hip_rotation_l	knee_angle_l	ankle_angle_l	subtalar_angle_l	mtp_angle_l	lumbar_extension	lumbar_bending	lumbar_rotation	arm_flex_r	arm_add_r	arm_rot_r	elbow_flex_r	pro_sup_r	wrist_flex_r	wrist_dev_r	arm_flex_l	arm_add_l	arm_rot_l	elbow_flex_l	pro_sup_l	wrist_flex_l	wrist_dev_l
0	-0.191743	-0.113651	-3.10338	-0.226126	0.955521	-7.92534e-05	-0.381112	-0.139624	-0.231127	0.584199	0.100081	0	0	0.217355	0.143061	-0.0749415	0.377596	-0.0229937	0	0	-0.411309	-0.120805	0.0560136	0.512403	-0.300135	1.61192	0.48631	0.286543	0	0	0.111787	-0.231373	1.57082	0.384812	-0.000361582	0	0
0.00999102	-0.192422	-0.113212	-3.11428	-0.226231	0.956432	0.000578759	-0.351187	-0.149933	-0.216728	0.637394	0.0673846	0	0	0.207237	0.142922	-0.0848581	0.378606	-0.0114124	0	0	-0.41299	-0.124559	0.059842	0.497234	-0.300116	1.60525	0.48426	0.271112	0	0	0.127522	-0.234557	1.57081	0.387141	-0.000849699	0	0
0.019982	-0.193175	-0.112671	-3.12532	-0.226312	0.957356	0.00122187	-0.321213	-0.160067	-0.202053	0.690477	0.0348384	0	0	0.197002	0.142656	-0.0949116	0.3795	0.000128815	0	0	-0.414807	-0.128303	0.0640329	0.481955	-0.300261	1.59816	0.48238	0.255911	0	0	0.143481	-0.23765	1.5708	0.389455	-0.00133421	0	0
0.0299731	-0.194116	-0.111873	-3.13667	-0.226335	0.95831	0.0018324	-0.291167	-0.169744	-0.186769	0.743206	0.00274493	0	0	0.186456	0.142088	-0.105233	0.380079	0.0115524	0	0	-0.416975	-0.13202	0.0691482	0.466338	-0.300843	1.58991	0.48096	0.241463	0	0	0.160029	-0.240493	1.57079	0.391726	-0.00180305	0	0
0.0399641	-0.195366	-0.110655	-3.14841	-0.226268	0.959314	0.00240193	-0.261092	-0.178642	-0.170668	0.795207	-0.0284589	0	0	0.175397	0.141065	-0.115855	0.380145	0.0227684	0	0	-0.419733	-0.135679	0.0757922	0.450038	-0.302195	1.57948	0.480368	0.228558	0	0	0.17759	-0.242876	1.57078	0.393913	-0.00223086	0	0
0.0499551	-0.196994	-0.108904	-3.16047	-0.226094	0.960377	0.00294387	-0.231125	-0.186482	-0.153822	0.845981	-0.0582231	0	0	0.163686	0.139529	-0.126626	0.379544	0.0336928	0	0	-0.423255	-0.139242	0.0844526	0.432585	-0.304658	1.56564	0.481014	0.218136	0	0	0.196568	-0.244576	1.57076	0.395966	-0.0025743	0	0
0.0599461	-0.198985	-0.106606	-3.17246	-0.225819	0.961499	0.00350617	-0.201511	-0.193094	-0.136708	0.89493	-0.0858783	0	0	0.151278	0.137593	-0.137118	0.378186	0.044252	0	0	-0.427603	-0.142655	0.0953318	0.413409	-0.30854	1.54709	0.483307	0.211181	0	0	0.217271	-0.245378	1.57074	0.397842	-0.00276782	0	0
0.0699372	-0.201195	-0.103907	-3.18365	-0.225484	0.96266	0.0041841	-0.172612	-0.198502	-0.120327	0.941391	-0.11062	0	0	0.138261	0.13563	-0.146529	0.376038	0.0543786	0	0	-0.432648	-0.145847	0.108157	0.391867	-0.314064	1.52258	0.487596	0.208616	0	0	0.239828	-0.245118	1.57072	0.399509	-0.0027202	0	0
0.0799282	-0.203553	-0.100883	-3.19354	-0.225107	0.96385	0.00503397	-0.144743	-0.202706	-0.105362	0.984821	-0.131572	0	0	0.124685	0.133843	-0.154346	0.373099	0.0640197	0	0	-0.438358	-0.148737	0.122713	0.367553	-0.321363	1.49109	0.494157	0.211183	0	0	0.26432	-0.243688	1.5707	0.400959	-0.00231266	0	0
0.0899192	-0.206059	-0.0975581	-3.20185	-0.224687	0.965065	0.00607897	-0.118173	-0.205688	-0.0922381	1.02481	-0.147866	0	0	0.110552	0.132302	-0.160288	0.369378	0.0731249	0	0	-0.444777	-0.151194	0.138678	0.340406	-0.330427	1.4521	0.50313	0.219353	0	0	0.290704	-0.241082	1.57068	0.402217	-0.00139932	0	0
0.0999102	-0.208759	-0.0939241	-3.20847	-0.224201	0.966311	0.00731214	-0.0930993	-0.207428	-0.0811683	1.06108	-0.158812	0	0	0.0958414	0.130976	-0.164269	0.36489	0.0816355	0	0	-0.451987	-0.153005	0.15545	0.310817	-0.341042	1.40586	0.51442	0.233209	0	0	0.318733	-0.237457	1.57067	0.403353	0.00018878	0	0
0.109901	-0.21171	-0.0899673	-3.21343	-0.223616	0.967601	0.00869731	-0.0696113	-0.207917	-0.0722068	1.09344	-0.164095	0	0	0.0805374	0.129764	-0.166349	0.359648	0.089476	0	0	-0.460042	-0.153849	0.17198	0.279774	-0.35271	1.35381	0.527581	0.252254	0	0	0.347863	-0.2332	1.57065	0.404503	0.0026345	0	0
0.119892	-0.214928	-0.0857034	-3.21682	-0.222884	0.968951	0.0101697	-0.0476549	-0.20717	-0.0652841	1.12175	-0.163895	0	0	0.0646998	0.128541	-0.166706	0.353674	0.0965459	0	0	-0.46891	-0.153301	0.186638	0.248976	-0.364589	1.29904	0.541696	0.275185	0	0	0.377205	-0.228999	1.57066	0.4059	0.00611885	0	0
0.129883	-0.218049	-0.0813296	-3.21873	-0.222019	0.970338	0.0116601	-0.0268132	-0.205417	-0.0603743	1.14595	-0.15875	0	0	0.0487589	0.127335	-0.165521	0.347025	0.102817	0	0	-0.477827	-0.1511	0.197224	0.220555	-0.37533	1.2468	0.555052	0.299347	0	0	0.405321	-0.225915	1.57067	0.407844	0.0107966	0	0
0.139874	-0.220675	-0.0770661	-3.21922	-0.221061	0.971724	0.0131108	-0.00664387	-0.202949	-0.0574382	1.16598	-0.14948	0	0	0.0331743	0.126215	-0.162982	0.339778	0.108324	0	0	-0.485875	-0.147155	0.20183	0.196462	-0.383713	1.20228	0.565909	0.321732	0	0	0.430861	-0.225009	1.57071	0.41063	0.0167614	0	0
0.149865	-0.222426	-0.0731199	-3.21841	-0.220054	0.973073	0.014476	0.0132727	-0.200065	-0.0564081	1.18185	-0.137048	0	0	0.0183831	0.125257	-0.159271	0.332033	0.113137	0	0	-0.492153	-0.141531	0.199012	0.178363	-0.388741	1.17035	0.572618	0.339085	0	0	0.45272	-0.227222	1.57079	0.414518	0.0239997	0	0
